<?xml version="1.0" encoding="UTF-8"?>
<svg width="178px" height="79px" viewBox="0 0 178 79" version="1.1" xmlns="http://www.w3.org/2000/svg" xmlns:xlink="http://www.w3.org/1999/xlink">
    <!-- Generator: Sketch 49.3 (51167) - http://www.bohemiancoding.com/sketch -->
    <title>Group</title>
    <desc>Created with Sketch.</desc>
    <defs></defs>
    <g id="Curves" stroke="none" stroke-width="1" fill="none" fill-rule="evenodd">
        <g id="Group">
            <rect id="Rectangle-3" fill="#111111" x="142" y="0" width="36" height="79"></rect>
            <path d="M28.28,38.832 L28.28,45.04 L3.704,60.336 L0.184,55.216 L22.072,41.968 L0.184,28.848 L3.512,23.536 L28.28,38.832 Z M51.6,11.632 C54.416,11.632 56.272,13.616 56.272,16.112 C56.272,18.736 54.416,20.72 51.6,20.72 C48.784,20.72 46.864,18.736 46.864,16.112 C46.864,13.616 48.784,11.632 51.6,11.632 Z M56.592,56.752 L65.744,56.752 L65.744,62 L39.248,62 L39.248,56.752 L49.36,56.752 L49.36,33.456 L39.568,33.456 L39.568,28.208 L56.592,28.208 L56.592,56.752 Z M101.72,60.208 C99.288,61.808 95.64,62.832 91.864,62.832 C83.992,62.832 79.832,58.416 79.832,51.76 L79.832,33.456 L72.344,33.456 L72.344,28.208 L79.832,28.208 L79.832,20.656 L87.064,19.824 L87.064,28.208 L98.456,28.208 L97.624,33.456 L87.064,33.456 L87.064,51.696 C87.064,55.28 88.728,57.008 92.888,57.008 C95.32,57.008 97.432,56.368 99.16,55.472 L101.72,60.208 Z M136.112,23.216 L119.152,23.216 L119.152,35.504 C121.648,34.224 124.016,33.776 126.384,33.776 C133.424,33.776 138.608,38.96 138.608,47.792 C138.608,56.688 132.336,62.832 122.736,62.832 C116.976,62.832 112.56,60.656 109.168,57.072 L113.456,53.04 C115.952,55.792 118.896,57.136 122.416,57.136 C127.856,57.136 131.12,53.744 131.12,47.792 C131.12,41.328 128.048,39.088 123.888,39.088 C121.712,39.088 119.92,39.536 117.616,40.56 L112.304,40.56 L112.304,17.84 L137.072,17.84 L136.112,23.216 Z" id="&gt;it52" fill="#111111"></path>
            <path d="M160.008,16.944 C169.032,16.944 174.088,22.512 174.088,29.424 C174.088,37.168 169.16,43.44 155.016,56.176 L175.112,56.176 L174.28,62 L146.824,62 L146.824,56.56 C162.632,41.328 166.6,36.336 166.6,29.872 C166.6,25.456 163.976,22.704 159.496,22.704 C155.528,22.704 153.16,24.112 150.536,27.312 L145.928,23.728 C149.32,19.376 153.608,16.944 160.008,16.944 Z" id="Path" fill="#FEFEFE"></path>
        </g>
    </g>
</svg>